<svg version="1.1" xmlns="http://www.w3.org/2000/svg" viewBox="0 0 960.800650528694 303.33439664663894" width="2882.401951586082" height="910.0031899399169">
  <!-- svg-source:excalidraw -->
  
  <defs>
    <style>
      @font-face {
        font-family: "Virgil";
        src: url("https://excalidraw.com/Virgil.woff2");
      }
      @font-face {
        font-family: "Cascadia";
        src: url("https://excalidraw.com/Cascadia.woff2");
      }
    </style>
  </defs>
  <rect x="0" y="0" width="960.800650528694" height="303.33439664663894" fill="#ffffff"></rect><g stroke-linecap="round"><g transform="translate(867.9517486368125 104.24137164868381) rotate(0 -188.49385855698273 44.7247093715807)" fill-rule="evenodd"><path d="M-189.02327505710272 -0.2426439505070448 L-226.94757681918952 18.907413343125334 L-234.32672694511712 56.75926499423395 L-209.0504087840446 87.05115463468667 L-165.5417959340328 90.44581066978301 L-141.36136734257013 52.56557911122963 L-150.9567168460294 14.502138741257205 L-186.98387167813925 -0.20213800482451916" stroke="none" stroke-width="0" fill="#326ce5" fill-rule="evenodd"></path><path d="M-189.2577979026988 -0.8949237186461687 C-202.61774904727295 8.007837844968396, -220.60420967020252 15.09413539741221, -224.7833848839781 18.616317933583012 M-189.55015050737856 0.9524957844987512 C-200.49824801570102 5.987715667957283, -211.96823269467984 12.418211556503286, -225.47860596814814 17.599363961414745 M-226.9213324433348 17.74968022682642 C-230.5186987562682 31.318578903297976, -230.58328781559246 49.13427905320628, -235.672119198367 57.3298083691002 M-226.4109864059991 18.66324845810359 C-228.98595398140267 29.16441247881296, -231.44081553252474 39.375046921229256, -234.46975009236485 56.888924198977755 M-233.014732895419 56.02403797191392 C-225.5656261075191 66.33109842288545, -221.06220713173553 76.392842604502, -208.15359613273822 89.09464584547516 M-234.30358164105564 56.00623734556894 C-226.01810356759367 66.039835098178, -216.74212240172068 77.03256570609855, -207.16184740022354 87.79771306156601 M-208.86152049873553 88.87757478910919 C-195.4768315386555 87.43116636249111, -181.13620020792155 90.72396468554793, -163.81529592577755 90.32770915863242 M-207.35977654412918 89.56000759243454 C-192.7738608051952 88.68238835524424, -177.32312573638777 88.80820378429691, -163.94581440970688 88.06997140565093 M-164.00230049197017 87.43029447433676 C-158.73988033770638 79.51230643941312, -151.63584489599376 69.72145517881071, -141.31559791559846 53.90158846090362 M-164.86892513320237 88.5922375551718 C-159.0992396641746 79.82111701049938, -152.79309386863645 69.39470411631, -143.94264642572523 53.64295613161102 M-141.5485772132364 51.757912179928276 C-144.54831789592714 37.06985316312063, -151.07133624763588 25.903921185841707, -152.8835900791987 14.404300425144449 M-142.60046021318556 54.31362163415924 C-144.9686175732341 43.75799449619708, -146.98158552015124 34.199517941197605, -152.4719770795732 15.375405347848847 M-150.68256363953196 16.15156957873942 C-158.9946460279269 13.847967979885395, -167.11828441352293 7.203889034040184, -188.39038754093198 1.8706491272896528 M-152.27245291537338 16.60633543779941 C-159.8036420760747 13.14450565667503, -166.60037549637622 9.711649748420585, -189.09214683740137 -0.7523507466539741 M-188.84643507773725 0 C-188.84643507773725 0, -188.84643507773725 0, -188.84643507773725 0 M-188.84643507773725 0 C-188.84643507773725 0, -188.84643507773725 0, -188.84643507773725 0" stroke="#000000" stroke-width="2" fill="none"></path></g></g><g stroke-linecap="round"><g transform="translate(770.7977601145844 169.83720485634922) rotate(0.5801223728874558 -90.88914240957604 -20.99075368966885)" fill-rule="evenodd"><path d="M-100.41278951089322 -45.709837831676914 L-94.79036845300482 -46.07987972844071 L-92.86265110415938 -53.86679070203431 L-91.88621652947624 -55.12129389753923 L-92.23439652910291 -54.031604027748415 L-91.01991662896691 -47.11758731476522 L-79.05657505874925 -43.267499102259556 L-70.62807872293855 -40.05569483762496 L-63.451503018058304 -42.085266570378124 L-68.35096917610203 -33.40539273661891 L-62.723290332156466 -23.33101743426451 L-64.04115381465685 -13.564450709581154 L-58.82515855090892 -14.172372984918532 L-55.1032921285124 -13.099201255681994 L-56.054628033305015 -11.95657910562533 L-64.08957781792422 -11.69054364186524 L-72.11503863946105 -1.6224429021986637 L-79.52672384240797 2.0678298238780113 L-74.90792955165281 10.26087877870263 L-76.23437690403489 11.194407438547021 L-74.50069214722029 13.06208028285463 L-76.89423597352243 6.57442595389456 L-80.31644145153356 4.0441525198335295 L-89.4172404462271 6.416580312064784 L-95.68586369744601 4.7821369580703035 L-102.34179251549598 3.404862485440767 L-108.52255482337479 9.459761260378142 L-110.39804666308378 9.980396213873554 L-110.73973178111318 9.224987587515274 L-106.00231005867572 1.395669149155621 L-109.27477191635026 -1.729599049919671 L-115.66306923725453 -11.964114224007504 L-126.42507195026653 -10.449502007531798 L-123.7851896254523 -8.848507317364666 L-126.2243942672448 -11.418989359552043 L-119.21547646789443 -11.463348135166811 L-117.41281922432661 -24.03672241305354 L-111.35314574832391 -32.79009622348143 L-118.68104521730055 -39.35140733010457 L-120.63604995945825 -39.8096515270184 L-118.03523778565882 -42.131177521771576 L-111.97450686191698 -38.76970236377667 L-108.98527337902351 -39.21480407645271 L-101.16753755729138 -42.15278551739545" stroke="none" stroke-width="0" fill="#ffff" fill-rule="evenodd"></path><path d="M-99.57337329383432 -44.649624181658936 C-98.59495830786226 -44.95842367233051, -94.51269022831639 -44.745279632374974, -93.78583927485634 -45.26651818446142 C-93.0589883213963 -45.78775673654786, -95.2167196221698 -46.17917402133487, -95.2122675730741 -47.77705549417761 C-95.2078155239784 -49.374936967020346, -94.41013061235421 -53.6055120966457, -93.75912698028209 -54.853807021517824 C-93.10812334820997 -56.10210194638995, -91.86951041955012 -56.25533722663603, -91.30624578064142 -55.26682504341037 C-90.74298114173271 -54.27831286018471, -90.72613873574298 -50.49061655558497, -90.37953914682986 -48.92273392216386 C-90.03293955791673 -47.35485128874274, -90.11481288531411 -46.58007535456274, -89.22664824716269 -45.85952924288368 C-88.33848360901126 -45.138983131204625, -87.1404532480679 -45.420386065708556, -85.05055131792128 -44.59945725208952 C-82.96064938777465 -43.77852843847049, -78.69792462515531 -42.147274090132534, -76.68723666628294 -40.9339563611695 C-74.67654870741057 -39.720638632206466, -73.98253615904628 -37.68482725350088, -72.98642356468703 -37.31955087831133 C-71.99031097032778 -36.95427450312179, -71.82720819530064 -37.87207594213823, -70.71056110012748 -38.74229811003222 C-69.59391400495431 -39.612520277926215, -67.21060346314844 -42.02795345398866, -66.28654099364809 -42.5408838856753 C-65.36247852414773 -43.05381431736194, -64.85737555369629 -42.889799813232955, -65.16618628312533 -41.81988070015205 C-65.47499701255437 -40.74996158707114, -67.18497638429804 -37.324708796885965, -68.1394053702223 -36.12136920718988 C-69.09383435614657 -34.918029617493794, -71.11535910287301 -35.71924798201681, -70.89276019867097 -34.599843161975535 C-70.67016129446893 -33.48043834193426, -67.9853101163346 -31.434651496802335, -66.80381194501003 -29.40494028694224 C-65.62231377368545 -27.375229077082142, -64.33957495937145 -24.66790427852834, -63.803771170723486 -22.421575902814954 C-63.267967382075526 -20.17524752710157, -63.744649121880215 -17.178513127953725, -63.58898921312225 -15.926970032661933 C-63.43332930436428 -14.67542693737014, -63.82661736653111 -15.225219321432697, -62.86981171817567 -14.912317331064198 C-61.91300606982023 -14.5994153406957, -58.921055184605976 -14.669459148132825, -57.84815532298958 -14.04955809045094 C-56.77525546137318 -13.429657032769056, -55.55392906934116 -11.546218801868397, -56.43241254847726 -11.192910984972894 C-57.31089602761336 -10.83960316807739, -61.75094400452734 -11.822490953140667, -63.119056197806195 -11.929711189077922 C-64.48716839108505 -12.036931425015178, -63.90452103569674 -12.897240695639727, -64.64108570815037 -11.836232400596424 C-65.377650380604 -10.775224105553121, -66.07922107819243 -7.502067953863912, -67.53844423252798 -5.5636614188181 C-68.99766738686353 -3.625254883772288, -71.64808503582728 -1.7511318566942633, -73.39642463416362 -0.20579319032155596 C-75.14476423249997 1.3395454760511514, -77.43391435037907 2.86965818407468, -78.02848182254604 3.708370579418144 C-78.62304929471301 4.547082974761608, -77.84871303461352 3.682823574763326, -76.96382946716541 4.8264811817392275 C-76.0789458997173 5.970138788715129, -72.8371760261263 9.381971464299582, -72.71918041785732 10.570316221273554 C-72.60118480958833 11.758660978247526, -75.11574212524908 12.566117980871343, -76.25585581755153 11.956549723583056 C-77.39596950985398 11.346981466294768, -78.68360017827375 7.938774945880693, -79.55986257167197 6.912906677543823 C-80.43612496507019 5.887038409206953, -79.93759000867466 5.816974714157832, -81.51343017794085 5.801340113561833 C-83.08927034720703 5.785705512965835, -86.31669063768638 6.8365189016979215, -89.01490358726909 6.819099073967832 C-91.7131165368518 6.801679246237743, -95.33497515020063 6.182998064220868, -97.70270787543716 5.696821147181298 C-100.07044060067368 5.210644230141728, -101.91934821706286 4.145368777308201, -103.22129993868825 3.9020375717304114 C-104.52325166031363 3.6587063661526216, -104.61935502263736 2.8930084859711664, -105.51441820518943 4.236833913714559 C-106.4094813877415 5.5806593414579515, -107.98914926839967 10.929342616386512, -108.59167903400068 11.964990138190766 C-109.19420879960168 13.00063765999502, -109.65836893468358 11.888059108170635, -109.12959679879549 10.450719044540087 C-108.6008246629074 9.013378980909538, -105.86855442591809 4.582491491471885, -105.41904621867218 3.340949756407472 C-104.96953801142627 2.0994080213430593, -105.78108332868472 3.787051909211408, -106.43254755531997 3.0014686341536088 C-107.08401178195523 2.2158853590958096, -107.94359095028521 0.2872564717652113, -109.32783157848371 -1.3725498939393224 C-110.71207220668221 -3.032356259643856, -113.57404605269083 -5.499397228917763, -114.73799132451099 -6.957369560073592 C-115.90193659633114 -8.41534189122942, -115.56356363663325 -9.358392004582695, -116.31150320940462 -10.120383880874293 C-117.05944278217599 -10.88237575716589, -117.8223143345106 -11.5632283635492, -119.22562876113923 -11.529320817823182 C-120.62894318776787 -11.495413272097164, -123.82956555470024 -9.680294407221451, -124.73138976917642 -9.916938606518185 C-125.6332139836526 -10.153582805814919, -125.59560494229413 -12.496815233870956, -124.63657404799628 -12.949186013603585 C-123.67754315369842 -13.401556793336214, -120.31547044070295 -12.43443896309616, -118.97720440338931 -12.631163284913962 C-117.63893836607566 -12.827887606731764, -117.10053278821805 -12.480781247125435, -116.60697782411441 -14.129531944510402 C-116.11342286001077 -15.77828264189537, -116.11510477461013 -20.197883438534205, -116.0158746187675 -22.523667469223764 C-115.91664446292486 -24.84945149991332, -116.38545949928319 -26.131005289213576, -116.01159688905862 -28.08423612864776 C-115.63773427883406 -30.037466968081944, -114.100046255903 -32.931325978640785, -113.7726989574201 -34.24305250582887 C-113.44535165893721 -35.554779033016956, -113.09199591325502 -35.26355532544122, -114.04751309816129 -35.95459529177627 C-115.00303028306756 -36.64563525811133, -118.62405600478581 -37.30543135811879, -119.50580206685771 -38.38929230383919 C-120.38754812892961 -39.473153249559594, -120.37496515238 -42.789021894295956, -119.33798947059272 -42.45776096609869 C-118.30101378880543 -42.12650003790142, -114.70133287521811 -37.40227388173868, -113.28394797613402 -36.40172673465561 C-111.86656307704992 -35.40117958757254, -112.26846385523724 -35.48797553764199, -110.83368007608814 -36.45447808360026 C-109.39889629693904 -37.42098062955853, -106.78811922811873 -40.727427690966614, -104.67524530123939 -42.20074201040523 C-102.56237137436004 -43.67405632984384, -98.92230546542334 -45.135720351749846, -98.1564365148121 -45.29436400023194 M-97.50209131303667 -42.31712909837158 C-96.59314062197504 -43.05690821045352, -95.1352197642805 -45.90851015695962, -94.37567391078461 -47.1742290781371 C-93.61612805728872 -48.43994799931458, -93.16737184785791 -48.852760211603275, -92.9448161920613 -49.91144262543646 C-92.72226053626468 -50.97012503926964, -93.07912105816179 -52.723321674155464, -93.04033997600499 -53.5263235611362 C-93.00155889384818 -54.32932544811694, -92.88562639321644 -55.85950207310102, -92.71212969912051 -54.729453947320884 C-92.53863300502458 -53.59940582154075, -92.17744244735103 -47.99207958787531, -91.99935981142939 -46.746034806455384 C-91.82127717550775 -45.49999002503546, -92.63684457229067 -47.56163739970479, -91.64363388359068 -47.253185258801345 C-90.65042319489069 -46.9447331178979, -88.35193430018346 -45.80225273588495, -86.0400956792295 -44.89532196103468 C-83.72825705827553 -43.988391186184415, -80.04396070952414 -43.085102657682114, -77.77260215786688 -41.81160060969977 C-75.50124360620963 -40.53809856171742, -73.63532034512637 -37.93027352591878, -72.41194436928596 -37.25430967314058 C-71.18856839344555 -36.57834582036239, -71.79422407989377 -36.79584113707581, -70.4323463028244 -37.75581749303057 C-69.07046852575503 -38.71579384898533, -65.0903282954001 -42.74533107425355, -64.24067770686975 -43.01416780886911 C-63.39102711833939 -43.28300454348467, -64.65248336009574 -40.588722521789, -65.33444277164224 -39.36883790072394 C-66.01640218318875 -38.148953279658876, -67.3730410936783 -36.45629529185331, -68.33243417614875 -35.694860082478726 C-69.29182725861921 -34.933424873104144, -71.50705767141085 -36.0408498716718, -71.09080126646494 -34.800226644476446 C-70.67454486151902 -33.55960341728109, -66.9201256525505 -30.4254001745776, -65.83489574647326 -28.251120719306584 C-64.74966584039603 -26.07684126403557, -64.81899984912968 -23.82675779801274, -64.57942183000152 -21.75454991285035 C-64.33984381087336 -19.682342027687962, -64.46288815338879 -16.93480307789238, -64.39742763170433 -15.817873408332245 C-64.33196711001987 -14.70094373877211, -65.27879085534177 -15.611697700726973, -64.1866586998948 -15.052971895489547 C-63.09452654444784 -14.49424609025212, -59.02890209861424 -12.897845240840338, -57.84463469902253 -12.46551857690769 C-56.66036729943082 -12.033191912975044, -56.269010153786276 -12.345246052203017, -57.081054302344526 -12.459011911893665 C-57.89309845090278 -12.572777771584313, -61.505344906992335 -13.09845384047251, -62.716899590372044 -13.14811373505158 C-63.928454273751754 -13.197773629630651, -63.25905543110835 -13.917041609495161, -64.3503824026228 -12.756971279368086 C-65.44170937413725 -11.596900949241011, -67.92913379382118 -8.408764068925553, -69.26486141945875 -6.187691754289134 C-70.60058904509633 -3.9666194396527166, -71.09625517628743 -1.0719820078009787, -72.36474815644826 0.5694626084504213 C-73.63324113660909 2.2109072247018213, -75.7715584226286 3.082646626927773, -76.87581930042377 3.6609759432192654 C-77.98008017821894 4.239305259510758, -79.37358807295422 2.5798478314248596, -78.99031342321926 4.039438506199376 C-78.6070387734843 5.499029180973893, -75.02928271720364 10.86988646946194, -74.57617140201404 12.418519991866363 C-74.12306008682444 13.967153514270786, -75.65052793305236 14.42038950907066, -76.27164553208164 13.331239640625908 C-76.89276313111091 12.242089772181156, -77.33266246913594 7.342932736496849, -78.30287699618971 5.883620781197851 C-79.27309152324348 4.424308825898853, -80.79687917627255 4.679565596414459, -82.09293269440425 4.575367908831919 C-83.38898621253595 4.471170221249379, -83.68221322804045 5.205559919662403, -86.0791981049799 5.258434655702608 C-88.47618298191934 5.311309391742813, -93.86599698667517 4.917929601804338, -96.47484195604088 4.892616325073148 C-99.08368692540658 4.867303048341959, -100.39909752536587 4.796507683265542, -101.73226792117414 5.106554995315468 C-103.06543831698241 5.416602307365395, -103.31322555582057 5.888501198901012, -104.47386433089049 6.752900197372706 C-105.63450310596042 7.6172991958444, -107.69040343185861 9.799618289731242, -108.69610057159369 10.292948986145635 C-109.70179771132877 10.786279682560028, -111.2313409111575 11.047782735216387, -110.50804716930095 9.712884375859062 C-109.7847534274444 8.377986016501737, -104.85935330049003 3.8300170303485377, -104.35633812045434 2.2835588300016845 C-103.85332294041865 0.7371006296548313, -106.5057962137814 1.0413754078925956, -107.48995608908685 0.4341351737779422 C-108.4741159643923 -0.17310506033671114, -109.09398611067714 -0.2475308069316835, -110.26129737228705 -1.3598825746862353 C-111.42860863389696 -2.472234342440787, -113.70077603049228 -4.892155682331607, -114.4938236587463 -6.239975432749368 C-115.28687128700031 -7.587795183167129, -114.61686837630222 -8.541480565208605, -115.01958314181117 -9.4468010771928 C-115.42229790732011 -10.352121589176996, -115.35022430784885 -11.785551374038544, -116.91011225180002 -11.671898504654537 C-118.47000019575118 -11.55824563527053, -122.98360488585328 -8.462848495381847, -124.3789108055182 -8.764883860888755 C-125.77421672518312 -9.066919226395664, -125.9139945327512 -12.91073618766627, -125.28194776978957 -13.484110697695987 C-124.64990100682793 -14.057485207725705, -121.9238310942971 -12.061548605646507, -120.58663022774837 -12.205130921067063 C-119.24942936119965 -12.348713236487619, -117.59008833612599 -12.366634311707186, -117.25874257049723 -14.34560459021932 C-116.92739680486848 -16.324574868731453, -118.7683852003524 -21.627314443579976, -118.59855563397586 -24.078952592139867 C-118.42872606759933 -26.530590740699758, -117.10950406372405 -27.356175413312236, -116.23976517223804 -29.055433481578664 C-115.37002628075203 -30.75469154984509, -113.91710662225043 -32.85226993553745, -113.3801222850598 -34.27450100173844 C-112.84313794786917 -35.696732067939436, -112.0877392720608 -36.88122823903725, -113.01785914909429 -37.588819878784626 C-113.94797902612778 -38.296411518532004, -117.94326819894542 -37.6172556374718, -118.96084154726077 -38.520050840222694 C-119.97841489557612 -39.42284604297359, -119.94475380213274 -42.97693410861984, -119.12329923898636 -43.00559109528997 C-118.30184467583999 -43.03424808196011, -115.18183050314698 -39.71327163540353, -114.03211416838249 -38.69199276024352 C-112.882397833618 -37.670713885083515, -113.43103101126897 -36.537164345174176, -112.22500123039944 -36.87791784432993 C-111.01897144952991 -37.21867134348568, -108.99104761452384 -39.74356785204876, -106.79593548316528 -40.73651375517802 C-104.60082335180672 -41.72945965830727, -100.3640210618161 -42.56927382622082, -99.0543284422481 -42.835593263105466" stroke="#000000" stroke-width="2" fill="none"></path></g></g><g stroke-linecap="round"><g transform="translate(664.1725081380638 158.32077696346573) rotate(0 6.74975579786053 -22.137362440904752)" fill-rule="evenodd"><path d="M1.6431370060890913 -22.75955314324127 L8.37238696737762 -29.59212392488065 L13.175770877776266 -30.595317143326042 L11.711628259156265 -13.857222868815638 L1.9627173226326704 -24.29809326813446" stroke="none" stroke-width="0" fill="#326ce5" fill-rule="evenodd"></path><path d="M-0.5369542311877012 -21.943667731293303 C0.1020759021406934 -22.723994815882477, 2.982924943704453 -26.536465699264163, 4.533129510009626 -27.55475427227942 C6.0833340763148 -28.57304284529468, 7.2267208491625325 -27.777645229620866, 8.764273166643338 -28.053399169384864 C10.301825484124144 -28.329153109148862, 12.86377535481728 -30.34495368087444, 13.758443414894462 -29.2092779108634 C14.653111474971643 -28.07360214085236, 14.410745112953975 -23.717998382308785, 14.132281527106425 -21.239344549318613 C13.853817941258875 -18.76069071632844, 13.417263809332187 -14.77198190042748, 12.087661899809161 -14.33735491292236 C10.758059990286135 -13.902727925417238, 8.15497394583995 -17.436348177390993, 6.154670069968266 -18.631582624287883 C4.154366194096582 -19.826817071184774, 0.9510498044773212 -20.781621477109326, 0.08583864457905288 -21.50876159430371 M1.3820060680992903 -22.631060848933473 C1.8376675430042613 -23.289898690611306, 2.6624987619447675 -25.428685421032213, 3.7999479014854525 -26.64417934265835 C4.937397041026138 -27.85967326428449, 6.468531383554084 -29.691339615004146, 8.2067009053434 -29.924024378690298 C9.944870427132717 -30.15670914237645, 13.462098518598596 -29.047514793013814, 14.228965032221348 -28.04028792477527 C14.9958315458441 -27.033061056536727, 13.003301033230766 -26.091170701337315, 12.807899987079908 -23.880663169259044 C12.61249894092905 -21.670155637180773, 14.066251983327355 -15.433834979720405, 13.056558755316207 -14.777242732305654 C12.046865527305059 -14.120650484890902, 9.074983397143582 -18.860124299815745, 6.749740619013024 -19.941109684770534 C4.4244978408824664 -21.022095069725324, 0.26384423929669176 -21.101458311275525, -0.8948979134671391 -21.263155042034402" stroke="#000000" stroke-width="2" fill="none"></path></g></g><g stroke-linecap="round"><g transform="translate(678.3947051807879 161.36862305309182) rotate(56.61573969620872 7.590167647590192 -26.98067507751054)" fill-rule="evenodd"><path d="M-0.13357907347381115 -26.740010240518743 L7.5841192551866605 -33.11879813777087 L11.325721454399062 -34.89690128628425 L15.663718237445787 -25.053552889119736 L11.781840361771717 -18.22046743704409 L-0.20833027176558971 -27.055102982961827" stroke="none" stroke-width="0" fill="#326ce5" fill-rule="evenodd"></path><path d="M0.6823063384741543 -26.335290100270207 C1.1999393369800928 -26.79148986585247, 1.4522240173573218 -28.985234827464936, 2.858980296058704 -30.018707410862014 C4.265736574760086 -31.05217999425909, 7.480713945548613 -31.973058322135024, 9.122844010682448 -32.53612560065267 C10.764974075816282 -33.09919287917031, 11.692789556423643 -34.17634389418966, 12.711760686861707 -33.39711108196787 C13.730731817299771 -32.617878269746086, 14.92247182419825 -30.185942771559244, 15.236670793310836 -27.860728727321973 C15.550869762423421 -25.535514683084703, 16.10180676155207 -20.289138619384907, 14.596954501537219 -19.44582681654424 C13.092102241522369 -18.602515013703574, 8.454180904233985 -21.74497046710166, 6.207557233221739 -22.800857910277966 C3.9609335622094943 -23.856745353454272, 2.213213557281827 -25.288182396893863, 1.117212475463748 -25.781151475602083 M-0.4186215631663799 -27.166030190506273 C0.4681116412378433 -27.946191039977542, 3.4028086384142364 -30.684991789153337, 4.944084510831286 -31.93315612355368 C6.485360383248335 -33.18132045795402, 7.482416284825285 -34.619439097929416, 8.82903367133592 -34.65501619690833 C10.175651057846554 -34.69059329588724, 12.096361185575345 -33.270233112385924, 13.023788829895093 -32.146618717427174 C13.95121647421484 -31.023004322468424, 14.406020271911506 -29.848823204984555, 14.393599537254408 -27.91332982715582 C14.38117880259731 -25.977836449327086, 14.200404888544652 -21.168950560397647, 12.9492644219525 -20.533658450454777 C11.69812395536035 -19.898366340511906, 8.931976278254918 -23.254471102591477, 6.886756737701505 -24.10157716749859 C4.841537197148092 -24.948683232405703, 1.5880378281113852 -25.195805183281667, 0.6779471786320208 -25.61629483989745" stroke="#000000" stroke-width="2" fill="none"></path></g></g><g stroke-linecap="round"><g transform="translate(689.5057457930776 170.90352535770455) rotate(107.76551663161719 6.969078239707926 -25.52230763491238)" fill-rule="evenodd"><path d="M0.004544345661997795 -26.42400766410851 L8.082619090197948 -33.31790790514537 L12.063426845944926 -30.843911274715808 L14.416669343475304 -19.658177125584874 L1.1341756265610456 -25.99244738616967" stroke="none" stroke-width="0" fill="#326ce5" fill-rule="evenodd"></path><path d="M0.40926448591053477 -26.978117726975913 C1.2496352505099697 -27.56222508269773, 3.1292658328413054 -27.780829752643008, 4.505270356408907 -28.606454910260812 C5.881274879976509 -29.432080067878616, 7.155633845007411 -31.4877847045844, 8.665291627316144 -31.931868672682725 C10.174949409624876 -32.37595264078105, 12.847757001628182 -32.517725754525244, 13.563217050261304 -31.270958718850757 C14.278677098894427 -30.024191683176266, 13.158126716174506 -26.676926903318076, 12.958051919114876 -24.45126645863578 C12.757977122055246 -22.22560601395348, 13.482689356429448 -18.608702349531654, 12.362768267903528 -17.916996050756964 C11.242847179377607 -17.225289751982274, 8.138419580846831 -18.928433612431984, 6.238525387959352 -20.301028665987626 C4.338631195071874 -21.67362371954327, 1.8388436412963056 -25.225360390007356, 0.9634031105786562 -26.152566372090813 M-0.8350103883258999 -24.99057199391523 C-0.07098974462852647 -25.961365413045893, 2.2723132139778723 -29.330694909446287, 3.765350928868754 -30.257141700999064 C5.258388643759636 -31.18358849255184, 6.424649793872975 -30.058917015008397, 8.123215901019393 -30.549252743231882 C9.82178200816581 -31.039588471455367, 12.860000524722984 -33.770622445285056, 13.956747571747258 -33.199156070339974 C15.05349461877153 -32.62768969539489, 14.74196704949098 -29.50019738374597, 14.70369818316503 -27.12045449356139 C14.665429316839083 -24.74071160337681, 15.023328621702216 -19.930728367827093, 13.727134373791568 -18.920698729232495 C12.43094012588092 -17.910669090637896, 9.140490441802696 -19.76590441191162, 6.926532695701143 -21.06027666199379 C4.71257494959959 -22.35464891207596, 1.6258819599042618 -25.648682865355024, 0.443387897182256 -26.686932229725507" stroke="#000000" stroke-width="2" fill="none"></path></g></g><g stroke-linecap="round"><g transform="translate(687.5974729905644 186.48236140223446) rotate(163.11582915884097 6.564380702397614 -26.2964045853347)" fill-rule="evenodd"><path d="M-0.6398905497044325 -26.68016952636358 L5.8729729865305424 -33.920729780648834 L13.566995403749042 -31.435273055156742 L10.889122757058743 -17.235980653226942 L-0.20833027176558971 -26.833993140484065" stroke="none" stroke-width="0" fill="#326ce5" fill-rule="evenodd"></path><path d="M-1.1940006125718354 -26.12701419877526 C-0.7298531454481467 -26.60724761075707, 2.0583556692887823 -27.946593166757104, 3.4671911412162864 -28.995580729683304 C4.87602661314379 -30.044568292609505, 5.646886082593553 -31.546461549053177, 7.2590122189931865 -32.42093957633246 C8.871138355392821 -33.29541760361174, 11.95587993017461 -35.26614155582435, 13.13994795961409 -34.24244889335898 C14.32401598905357 -33.21875623089362, 14.448361083584643 -28.938472144565267, 14.36342039563007 -26.27878360154026 C14.278479707675498 -23.61909505851525, 13.837466896588708 -19.213822401036573, 12.630303831886653 -18.284317635208936 C11.423140767184599 -17.3548128693813, 9.28690085567997 -19.492880855767677, 7.120442007417739 -20.70175500657444 C4.9539831591555075 -21.910629157381205, 0.8316489842302701 -24.56773535176097, -0.3684492576867342 -25.537562540049525 M0.3800103364884855 -26.964492108027308 C0.7050827031902684 -27.848897985810357, 1.9612948553104679 -30.229144713971493, 2.9910336356295426 -30.894532907371783 C4.020772415948617 -31.559921100772073, 5.331150496829502 -30.508921965534075, 6.558443018402934 -30.956821268429046 C7.785735539976366 -31.404720571324017, 9.199115980705878 -34.41874636098094, 10.354788765070133 -33.581928724741616 C11.510461549434387 -32.74511108850229, 12.871811369898534 -28.319701486712972, 13.492479724588462 -25.93591545099311 C14.113148079278389 -23.55212941527325, 15.545892084578776 -20.01157293239708, 14.078798893209699 -19.27921251042244 C12.611705701840622 -18.5468520884478, 7.301001552646023 -20.52813760746891, 4.689920576373995 -21.541752919145274 C2.078839600101967 -22.55536823082164, -0.5070123861216407 -24.300743608837113, -1.5876869644224645 -25.36090438048062" stroke="#000000" stroke-width="2" fill="none"></path></g></g><g stroke-linecap="round"><g transform="translate(674.2266792040443 197.2149168057473) rotate(216.28421746585929 7.199773913139154 -29.849931545592057)" fill-rule="evenodd"><path d="M-0.15672478266060352 -31.10537534120414 L6.456291631691744 -34.73210933822363 L14.264077016617078 -39.25054510915052 L14.667931223343684 -22.24049420175432 L-0.3105483967810869 -28.325052551058267" stroke="none" stroke-width="0" fill="#326ce5" fill-rule="evenodd"></path><path d="M0.39643054492771634 -28.944557325420117 C0.9693863632873201 -29.284503959164685, 2.5870575142214234 -32.04130537009429, 3.846999396068157 -33.077071946250705 C5.106941277914891 -34.11283852240712, 6.687764872283673 -34.59943027850286, 7.956081836008121 -35.15915678235858 C9.224398799732567 -35.7188832862143, 10.607124755338143 -37.33268564944629, 11.45690117841484 -36.435430969385024 C12.306677601491538 -35.53817628932376, 12.694291530643829 -32.36237528780097, 13.054740374468304 -29.775628701990968 C13.41518921829278 -27.18888211618096, 14.520896239765294 -21.54095551903653, 13.61959424136169 -20.91495145452498 C12.718292242958087 -20.288947390013433, 9.752547056998061 -24.518173061459894, 7.646928384046688 -26.01960431492169 C5.541309711095315 -27.521035568383486, 2.2599158330950364 -29.222252050943684, 0.9858822036534549 -29.923538975295756 M-0.8545821483246983 -29.518273312718755 C-0.4381878327793875 -29.53852229519627, 1.7573103098319995 -30.248608451938296, 3.1225765035311888 -31.474517598232683 C4.487842697230378 -32.70042674452707, 5.980701180462725 -35.72089816754729, 7.337015013870437 -36.87372819048508 C8.69332884727815 -38.026558213422874, 10.56065269147263 -39.64568050160546, 11.260459503977465 -38.39149773585942 C11.9602663164823 -37.13731497011337, 10.899782955237903 -32.185818707231384, 11.535855888899453 -29.348631596008815 C12.171928822561004 -26.51144448478625, 16.143596914690292 -22.276676214386846, 15.076897105946763 -21.36837506852402 C14.010197297203232 -20.460073922661195, 7.568861801742511 -22.409129502120997, 5.13565703643827 -23.898824720831854 C2.7024522711340304 -25.38851993954271, 1.6115686810146492 -29.597630123298625, 0.4776685141213237 -30.306546380789165" stroke="#000000" stroke-width="2" fill="none"></path></g></g><g stroke-linecap="round"><g transform="translate(660.2562108788102 189.05810694540958) rotate(272.70762780618236 6.875137478344072 -28.11839539940226)" fill-rule="evenodd"><path d="M-1.261983809992671 -28.896732672611268 L8.491990665611143 -32.64175216601026 L8.90973393057769 -33.715400791267854 L12.919016473954272 -29.001406155670256 L14.917676696630616 -21.933550602492566 L7.66637364061342 -24.130148203087977 L0.2229649443179369 -28.935413345256837" stroke="none" stroke-width="0" fill="#326ce5" fill-rule="evenodd"></path><path d="M0.8988342057913543 -27.250292761931213 C1.5626313532178155 -27.895799887833075, 1.5944307693727933 -29.78641351982537, 2.788782271986933 -31.15285272687225 C3.9831337746010727 -32.519291933919135, 6.5755989217501485 -34.81761009689654, 8.064943221476192 -35.4489280042125 C9.554287521202236 -36.08024591152846, 10.869603836892429 -36.081411652418396, 11.724848070343192 -34.940760170768 C12.580092303793956 -33.80010868911761, 12.731124935247777 -30.97663606490871, 13.196408622180773 -28.605019114310117 C13.661692309113768 -26.233402163711524, 15.751912048022366 -21.757814596264343, 14.516550191941162 -20.711058467176432 C13.281188335859959 -19.664302338088522, 8.217020425031132 -21.16407309948012, 5.7842374856935574 -22.324482339782648 C3.3514545463559826 -23.484891580085176, 0.9478811918350829 -26.765881734624518, -0.08014744408428665 -27.673513908991605 M-0.08841656550765031 -28.072274136180074 C0.532689196172809 -29.133662607353997, 0.5699320303537572 -32.04504470772627, 1.9058659051564648 -33.12879600040166 C3.2417997799591722 -34.212547293077044, 6.759527757365665 -34.44878610033775, 7.927186683308596 -34.574781892232416 C9.094845609251529 -34.70077768412708, 8.272741726024332 -34.95236536629739, 8.911819460814055 -33.88477075176964 C9.550897195603778 -32.817176137241894, 11.104402282559155 -30.27580399740419, 11.761653092046929 -28.169214205065938 C12.418903901534703 -26.062624412727686, 13.776642558957553 -22.081321243836268, 12.855324317740699 -21.245231997740145 C11.934006076523845 -20.409142751644023, 8.567635480815715 -22.024715321869696, 6.23374364474581 -23.15267872848921 C3.899851808675905 -24.280642135108724, -0.3428357755241026 -27.004613129854217, -1.148026698678732 -28.013012437457235" stroke="#000000" stroke-width="2" fill="none"></path></g></g><g stroke-linecap="round"><g transform="translate(656.3386023663204 178.01765598057284) rotate(323.4456150347969 7.57766383941663 -30.989029755440157)" fill-rule="evenodd"><path d="M-1.2204921562224627 -28.604891999266464 L8.831581002738591 -38.82836715539285 L12.20640316504685 -38.2710742685733 L14.739428384483224 -21.996550001007922 L-0.2590890247374773 -28.71433208753856" stroke="none" stroke-width="0" fill="#326ce5" fill-rule="evenodd"></path><path d="M0.4259477544575929 -30.103963562301715 C0.8505468132381191 -30.680407716134788, 2.010948662597747 -31.8029681264245, 2.9440248976108734 -32.78784970197877 C3.877101132624 -33.77273127753304, 4.684902016547048 -35.145614279232674, 6.024405164536352 -36.01325301562735 C7.363908312525656 -36.88089175202202, 9.7282702739871 -38.93008737196575, 10.9810437855467 -37.993682120346804 C12.233817297106299 -37.05727686872786, 12.70232354951124 -32.7465454861635, 13.541046233893951 -30.394821505913672 C14.379768918276662 -28.043097525663846, 16.87828271943139 -24.583145357203033, 16.013379891842966 -23.88333823884786 C15.148477064254541 -23.183531120492685, 11.020071482437697 -25.07454294982488, 8.351629268363402 -26.19597879578263 C5.683187054289107 -27.317414641740378, 1.4103372970571593 -29.813748235430236, 0.002726607397198766 -30.611953314594345 M-0.8095684037916362 -31.084438410844076 C-0.5532397272962282 -32.0405058496131, 0.5951218175218116 -33.17060678688893, 2.1426109092329746 -34.28248269153809 C3.6901000009441374 -35.39435859618725, 6.969122737765784 -37.32718032967647, 8.475366146475341 -37.75569383873903 C9.9816095551849 -38.18420734780158, 10.573449301399187 -37.63325516312743, 11.180071361490318 -36.85356374591343 C11.78669342158145 -36.07387232869944, 11.599876383757547 -35.033683582648784, 12.115098507022132 -33.07754533545503 C12.630320630286718 -31.12140708826127, 15.315227278144977 -26.032351693734824, 14.271404101077831 -25.116734262750903 C13.227580924010685 -24.20111683176698, 8.401000756493804 -26.577554987493258, 5.852159444619254 -27.58384074955151 C3.303318132744704 -28.59012651160976, 0.25626700682321957 -30.900728117942478, -1.0216437701694667 -31.1544488351004" stroke="#000000" stroke-width="2" fill="none"></path></g></g><g stroke-linecap="round" transform="translate(677.4845428650065 147.48738891833995) rotate(0 3.0303795934121354 3.0303795934121354)"><path d="M1.7467088490384648 -0.8019369061615591 C2.4936979822621734 -0.7336344523071073, 4.6344944424582195 0.30106216124688046, 5.467829071387801 0.8535636237523847 C6.301163700317382 1.406065086257889, 6.781788200111091 2.07342470643742, 6.746716622615953 2.5130718688714664 C6.7116450451208145 2.952719031305513, 5.491503802456808 2.8374751744026026, 5.257399606416973 3.4914465983566654 C5.023295410377138 4.145418022310729, 5.794195805407476 6.059877090218324, 5.342091446376941 6.436900412595843 C4.889987087346405 6.813923734973363, 3.2930368592564396 6.006485385484521, 2.5447734522337617 5.753586532621785 C1.7965100452110838 5.500687679759049, 1.146612144575421 5.455710181739127, 0.8525110042408737 4.919507295419425 C0.5584098639063264 4.383304409099724, 0.8376768719906827 3.177381322632329, 0.7801666102264786 2.536369214703574 C0.7226563484622744 1.8953571067748194, 0.22514137977526477 1.433030545932689, 0.5074494336556485 1.0734346478468968 C0.7897574875360323 0.7138387497611045, 2.165187935805547 0.5504011799242707, 2.4740149335087813 0.37879382618881996 C2.782841931212016 0.20718647245336919, 2.259680725235034 -0.03378856920905937, 2.3604114198750548 0.04379052543419215 M3.048120021405359 0.9826516744923546 C3.187573534437886 0.9891169249448168, 3.476318135789255 0.4854969280594203, 3.981584166588159 0.8529354222224252 C4.486850197387064 1.2203739163854301, 5.756917113343014 2.328125900402289, 6.079716206198784 3.1872826394703844 C6.402515299054554 4.04643937853848, 6.519542451571249 5.696143930442958, 5.918378723722777 6.0078758566309975 C5.317214995874306 6.319607782819037, 3.2228093508738818 4.888193009096264, 2.472733839107953 5.0576741965986205 C1.7226583273420246 5.227155384100977, 1.881605943981691 7.022924498638119, 1.4179256531272046 7.024762981645134 C0.9542453622727183 7.026601464652149, -0.32216667020493744 6.1492456657721375, -0.309347906018965 5.06870509464071 C-0.29652914183299256 3.9881645235092824, 0.9498171339649717 1.5631703891756217, 1.4948382382430392 0.5415195548565666 C2.0398593425211065 -0.48013127946248857, 2.777367268121175 -1.178072814041155, 2.96077871964944 -1.0611999112736212 C3.144190171177705 -0.9443270085060875, 2.6367132232323534 1.2484648857896634, 2.5953069474126296 1.2427569714617688 C2.553900671592906 1.2370490571338741, 2.6751623141157155 -1.00751714529147, 2.712341064731097 -1.0954473972409886" stroke="none" stroke-width="0" fill="#326ce5"></path><path d="M4.402888356522578 0.42615316741519926 C5.092393162700738 0.6834286132307985, 5.538615539329057 2.3098475665120954, 5.922481425900394 2.853424534403399 C6.306347312471732 3.397001502294702, 6.787685939794481 3.238366945049552, 6.7060836759506 3.6876149747630205 C6.624481412106719 4.136863004476489, 6.120232925053795 5.212331542186828, 5.432867842837106 5.54891271268421 C4.7455027606204165 5.885493883181592, 3.373955283222863 5.897716403288295, 2.5818931826504663 5.707101997747314 C1.7898310820780696 5.516487592206333, 1.212357679006555 4.703343542417846, 0.6804952394027248 4.405226279438321 C0.14863279979889477 4.1071090164587964, -0.7695201166801923 4.601666504731584, -0.6092814549725141 3.9183984198701642 C-0.44904279326483587 3.2351303350087446, 1.0410267651007832 0.9660009340675487, 1.6419272096487942 0.3056177702698033 C2.2428276541968053 -0.3547653935279421, 2.4773349050808515 -0.2283750165748971, 2.996121212315552 -0.043900562916308505 C3.514907519550252 0.14057389074228008, 4.402051371829221 1.104418965902529, 4.754645053056997 1.4124644922213347 C5.107238734284773 1.7205100185401405, 5.185445232555363 1.8727023547950075, 5.111683299682207 1.8043725949965257 M3.1320511126865744 -0.04324781735184979 C3.943819719572509 -0.10051505420526186, 3.886434760861476 0.28492031379221006, 4.43844188494381 0.5383467068456937 C4.990449009026144 0.7917730998991774, 6.066074620620712 0.8528606111973689, 6.444093857180579 1.4773105409690523 C6.8221130937404455 2.101760470740736, 7.211016725741504 3.4356479050113298, 6.70655730430301 4.2850462854757945 C6.202097882864515 5.13444466594026, 4.048685801883958 6.237470836794347, 3.4173373285496114 6.573700823755842 C2.785988855215264 6.909930810717337, 3.25212707168332 6.654828419576691, 2.9184664642969267 6.302426207244766 C2.5848058569105334 5.950023994912841, 1.735373385522965 5.009915790861067, 1.4153736842312523 4.4592875497642925 C1.0953739829395397 3.9086593086675183, 1.2051369789298843 3.5804810456521294, 0.998468256546651 2.9986567606641206 C0.7917995341634178 2.4168324756761117, 0.15666093224081687 1.317138360533939, 0.17536134993185293 0.9683418398362382 C0.194061767622889 0.6195453191385374, 0.8698468877285989 0.7875987203027596, 1.1106707626928674 0.9058776364779155 C1.351494637657136 1.0241565526530714, 1.6841773038920598 1.6796596436904494, 1.620304599717464 1.678015336887174" stroke="#000000" stroke-width="2" fill="none"></path></g><g transform="translate(629.1064399624277 200.96608451593448) rotate(0 73.2670343150802 8.700460324915781)"><text x="0" y="12.400920649831562" font-family="Virgil, Segoe UI Emoji" font-size="13.543300282484541px" fill="#000000" text-anchor="start" style="white-space: pre;" direction="ltr">Kubernetes Resources</text></g><g stroke-linecap="round" transform="translate(295.741433828813 125.39557904625173) rotate(0 60.44530330994121 52.20276194949466)"><path d="M-1.1729643661528826 -0.16291856579482555 C43.451247710745974 -0.7114745497220734, 85.54466564396807 1.585947799730899, 121.92282832274121 -1.6261813025921583 M0.9478069255128503 -0.4118985692039132 C27.063165239625718 -1.6927787778577397, 55.00491000545978 -0.6455151257714817, 120.72126791765821 -0.1484950641170144 M118.99729169020337 -0.20497053675353527 C121.77675619911939 31.861433800837904, 120.29720780443937 63.84782295593423, 121.38585597881955 102.58732915388084 M120.78384015848768 0.2761420151218772 C119.88460259654842 41.00415153606801, 119.43347551443897 82.00097419025388, 121.5183190195812 104.7107697594691 M119.94110853085202 103.18326831327416 C78.80229934723229 105.85999439592666, 34.57153879337329 105.0194582187683, 1.3369829934090376 105.91159874664284 M120.00248397281301 103.83722721224315 C85.95185591819373 104.97453444967657, 51.056044491076904 104.55369850764662, -0.6275503030046821 103.92484755998142 M1.0883567612618208 104.47474676834084 C1.5206853978752224 81.63166483833449, 1.9905579321502773 55.12324057739553, 0.6572150867432356 0.4294521827250719 M0.2760100970044732 103.68891640191562 C0.44004583501175865 82.80095497204024, -0.8720526979033567 61.16099368712335, 0.23030898068100214 -0.7551935473456979" stroke="#000000" stroke-width="2" fill="none"></path></g><g transform="translate(302.152299331382 143.2544186605524) rotate(0 54.03443780737166 34.34392233519387)"><text x="54.034437807371674" y="15.895948223462572" font-family="Virgil, Segoe UI Emoji" font-size="18.31675857877007px" fill="#000000" text-anchor="middle" style="white-space: pre;" direction="ltr">Kubernetes </text><text x="54.034437807371674" y="38.79189644692514" font-family="Virgil, Segoe UI Emoji" font-size="18.31675857877007px" fill="#000000" text-anchor="middle" style="white-space: pre;" direction="ltr">Vault</text><text x="54.034437807371674" y="61.68784467038772" font-family="Virgil, Segoe UI Emoji" font-size="18.31675857877007px" fill="#000000" text-anchor="middle" style="white-space: pre;" direction="ltr">Webhook</text></g><g stroke-linecap="round"><g transform="translate(418.45948448999354 162.8557407735684) rotate(0 104.17193291854994 -3.3453779153684877)"><path d="M0.989783923700452 1.0597809445112942 C35.83602552391574 -0.3032346357954969, 173.6580850515507 -6.432974457270618, 208.29358408279626 -7.750536775248308 M0.0502817543037235 0.5705619950406255 C34.8671128927356 -0.6448543322077323, 172.93663076924082 -4.7626358365222465, 207.70567418413145 -6.329255223920751" stroke="#000000" stroke-width="2" fill="none"></path></g><g transform="translate(418.45948448999354 162.8557407735684) rotate(0 104.17193291854994 -3.3453779153684877)"><path d="M181.67314692859853 6.0934434252644225 C186.02171699808878 4.065781636426245, 194.053726718979 -2.3433400684982235, 208.830618157628 -8.15871057165246 M178.99981007718796 5.450288985748057 C185.9215208453129 1.8251397042039228, 192.31325837452042 0.6524639200187696, 208.61338537616564 -6.202304541779864" stroke="#000000" stroke-width="2" fill="none"></path></g><g transform="translate(418.45948448999354 162.8557407735684) rotate(0 104.17193291854994 -3.3453779153684877)"><path d="M180.92657168186383 -14.414180225144293 C185.5234145428681 -11.63531440748836, 193.73062895503892 -13.231750604443297, 208.830618157628 -8.15871057165246 M178.25323483045327 -15.057334664660658 C185.28332217615667 -14.216480198202209, 191.83784706498668 -10.917561296140413, 208.61338537616564 -6.202304541779864" stroke="#000000" stroke-width="2" fill="none"></path></g></g><g transform="translate(467.91896446925193 118.06887561474286) rotate(0 73.26703431508025 18.316758578770077)"><text x="0" y="13.316758578770063" font-family="Virgil, Segoe UI Emoji" font-size="14.653406863016057px" fill="#000000" text-anchor="start" style="white-space: pre;" direction="ltr">Patch Pods, Secrets</text><text x="0" y="31.633517157540126" font-family="Virgil, Segoe UI Emoji" font-size="14.653406863016057px" fill="#000000" text-anchor="start" style="white-space: pre;" direction="ltr">and ConfigMap</text></g><g stroke-linecap="round" transform="translate(10 10) rotate(0 85.17292739128084 41.6706257667019)"><path d="M-0.949869068339467 0.8702021855860949 C44.614828276560836 0.2680387496394592, 85.58269143872188 1.7842835783404785, 168.41241674783348 -0.9873743634670973 M0.7732032844796777 -0.7042548814788461 C38.83246433501531 2.4407096075850165, 76.80679591930338 2.408133553250376, 170.8342355136451 0.6262701293453574 M169.77047996881126 -1.9176345448940992 C171.87647459983555 29.96011734022016, 169.62970284700123 62.755534706901805, 172.34565543296455 83.71844713196137 M170.46374806209175 0.8264961978420615 C170.72334197697194 22.99039664425101, 170.3786964469865 45.977980829368455, 169.49228095455734 82.47899993780979 M169.01360940101264 82.52443878158905 C114.56010304681523 82.09588018714847, 57.565792783316056 83.48954734861316, -0.23769316263496876 81.65459798082688 M170.90227293415634 84.20184716109165 C122.91739682153946 80.87849889704215, 76.67992766845627 82.1455234439038, -0.6440213909372687 83.78468960050472 M0.6117335837334394 84.33307193025925 C0.25458974702224524 63.09640357280067, 1.8285768137680032 46.699886048471974, -1.7687832433730364 -0.9359408598393202 M-0.28387224581092596 82.54407399419674 C-1.0103460879517354 52.634899879222445, 0.35422736094467255 23.962190264675407, -0.4499480416998267 0.5580791076645255" stroke="#000000" stroke-width="2" fill="none"></path></g><g transform="translate(15.49502757363166 26.485082720893047) rotate(0 82.88333256893458 27.475137868155088)"><text x="82.88333256893456" y="13.31675857877006" font-family="Virgil, Segoe UI Emoji" font-size="14.653406863016054px" fill="#000000" text-anchor="middle" style="white-space: pre;" direction="ltr">Kubernetes Resources </text><text x="82.88333256893456" y="31.63351715754012" font-family="Virgil, Segoe UI Emoji" font-size="14.653406863016054px" fill="#000000" text-anchor="middle" style="white-space: pre;" direction="ltr">like Pods, Configmap </text><text x="82.88333256893456" y="49.950275736310175" font-family="Virgil, Segoe UI Emoji" font-size="14.653406863016054px" fill="#000000" text-anchor="middle" style="white-space: pre;" direction="ltr">and Secrets</text></g><g stroke-linecap="round"><g transform="translate(174.86645278123166 90.49676455485877) rotate(0 57.26657742367655 21.216627129406305)"><path d="M0.8350676905363799 -0.8475101184099912 C19.88746582331001 6.286935484489002, 95.57894735195931 36.28851886282463, 114.71881534862455 43.280764377222646 M-0.18566050127148626 1.321943124085665 C18.694248014631267 8.110092752730049, 94.60938910396095 35.002329734142606, 113.89628385643597 41.76310494262098" stroke="#000000" stroke-width="2" fill="none"></path></g><g transform="translate(174.86645278123166 90.49676455485877) rotate(0 57.26657742367655 21.216627129406305)"><path d="M82.48525117510148 42.45997238023466 C95.8275262740628 43.74406944981486, 102.21342836356712 41.24644650547775, 112.27095379385288 41.4556539943379 M84.0404320851449 42.597681086084606 C90.70794167905032 41.34679342848413, 99.2977011284761 40.91690484108614, 113.58710073663975 41.18472925945489" stroke="#000000" stroke-width="2" fill="none"></path></g><g transform="translate(174.86645278123166 90.49676455485877) rotate(0 57.26657742367655 21.216627129406305)"><path d="M89.3117561503916 23.107483335975303 C100.45246840295816 30.897053768072396, 104.56035067743794 34.857399238384254, 112.27095379385288 41.4556539943379 M90.86693706043502 23.24519204182525 C95.79450842484712 26.881400871994643, 102.66560123634113 31.3237679119933, 113.58710073663975 41.18472925945489" stroke="#000000" stroke-width="2" fill="none"></path></g></g><g transform="translate(75.61502809652484 129.64946612224912) rotate(0 80.13581878211903 18.316758578770077)"><text x="0" y="13.316758578770063" font-family="Virgil, Segoe UI Emoji" font-size="14.65340686301605px" fill="#000000" text-anchor="start" style="white-space: pre;" direction="ltr">Creation and updation</text><text x="0" y="31.633517157540126" font-family="Virgil, Segoe UI Emoji" font-size="14.65340686301605px" fill="#000000" text-anchor="start" style="white-space: pre;" direction="ltr">events</text></g><g stroke-linecap="round"><g transform="translate(923.6170613812938 263.8848273934185) rotate(178.44924709356545 -25.48803794308469 -39.666349196883914)" fill-rule="evenodd"><path d="M-24.92141344947975 -79.96442590661539 C-24.92141344947975 -79.96442590661539, -24.92141344947975 -79.96442590661539, -24.92141344947975 -79.96442590661539 M-24.92141344947975 -79.96442590661539 C-24.92141344947975 -79.96442590661539, -24.92141344947975 -79.96442590661539, -24.92141344947975 -79.96442590661539 M-43.17485181625073 -48.06490624695239 C-37.72856168804723 -53.24885683324254, -34.89909408329351 -56.348157746108164, -19.886348747790734 -71.65661996862531 M-43.46267276919519 -47.47012582886187 C-35.47165310380073 -55.67217671447116, -27.071281816514634 -65.82987617063236, -21.496543299549202 -73.35782790164143 M-60.93468486919909 -13.343283055258205 C-46.54385137954064 -32.253303443465654, -31.548733406170093 -49.89018592945912, -14.78395952880696 -65.52703969505713 M-60.8801524483776 -13.00879758121561 C-45.27474734356758 -32.59634216711068, -28.310181004333913 -52.05260601306464, -17.07528684418962 -64.18788053141073 M-66.40215494603721 5.049502352026316 C-50.34061939816002 -15.443790709865752, -34.670515962168906 -35.227774528592825, -11.124149579232359 -58.14137307200165 M-65.73262034010945 4.154465091188463 C-54.67731529038943 -8.89306293073996, -41.557390133043135 -23.069627457815685, -12.630082673070753 -57.03774574510337 M-56.46161615675285 3.6960107949243834 C-45.04875727563744 -9.7055696273352, -30.98743683437947 -22.444986438767828, -8.179562942035687 -51.300218243990116 M-55.77036683367535 2.9920850689204386 C-44.30112562445777 -8.414087558759604, -31.76784270554098 -22.255615385081285, -7.763378295958233 -49.65116743920373 M-45.928195211096416 5.357089474028509 C-30.490783963808084 -9.837184407149216, -17.69251951211317 -25.53840442377874, -5.939640535185696 -43.30612648055378 M-44.3336346056226 4.392076300619703 C-31.103900502120077 -13.137151447162728, -15.737543504910331 -27.71735598238299, -4.172347785117687 -42.31778794769618 M-35.744458027036664 3.433312119807441 C-27.270442307273107 -4.627640825205791, -18.35219154921363 -11.913666888765377, 1.2018798483488666 -34.27610217622389 M-33.518035228216824 3.088233952301879 C-22.805092735068808 -9.766415323184798, -11.9228675293854 -22.14812156779476, -1.3051417753147376 -34.7168980420651 M-21.757267397542343 2.0107993377299263 C-14.383049282602693 -7.692251055924213, -0.9884698359486208 -21.399896217904487, 4.759463540599249 -25.45410285053169 M-22.920156836223647 4.174704752482588 C-16.965668887922035 -4.037984297708871, -11.931006423086941 -9.2170384406403, 2.9828625361849888 -27.76118693129485 M-14.405282990582199 4.548718608264715 C-8.216566733242043 -0.3441884550265861, -2.072822040968232 -6.054863616229216, 9.124338027587209 -21.27824872823121 M-12.293814126908691 3.262236992177457 C-5.234731529976101 -4.860032655360739, 2.831576940255939 -12.19437760134388, 7.428870418606374 -21.19520184209259 M-0.406461349124986 4.5667842868805595 C2.565086813220547 -2.3087029101818866, 5.518540185135703 -6.17181944582529, 13.25275683336298 -13.67448441840815 M-1.2062983600375832 3.634430524902112 C2.579855355410482 -1.928175341626995, 8.549725679823542 -9.789374216753021, 12.082183491702779 -12.420259697997148 M9.155439577208812 2.7850102431312624 C10.665883557462138 0.8230264217747567, 14.555836538922009 -2.709958521377615, 16.72076866741591 -4.575652141855692 M8.405996697166914 4.027747740706843 C11.159575766953312 0.19790235732319628, 13.929913979074003 -2.9429187433945216, 16.52243879086637 -5.757123064795172 M-69.38463197150944 0.5567280579789013 C-69.38463197150944 0.5567280579789013, -69.38463197150944 0.5567280579789013, -69.38463197150944 0.5567280579789013 M-69.38463197150944 0.5567280579789013 C-69.38463197150944 0.5567280579789013, -69.38463197150944 0.5567280579789013, -69.38463197150944 0.5567280579789013 M-56.87770574047203 0.7812514767388632 C-59.615096027514795 -0.6833062328783139, -60.783529333405355 -1.8706035479501884, -65.18838821254215 -5.9413908716319295 M-57.70134843770387 0.024613398393877883 C-59.494023314925016 -2.121398926519762, -62.009393048533326 -4.243085466201637, -65.81568502765624 -6.4859532441506325 M-45.57273172000747 2.040530428910863 C-51.43009242616296 -2.1568969539288174, -55.88182191309468 -6.565587788280706, -62.297949490504614 -14.484535341162552 M-44.807417397111166 0.5282109562924617 C-47.358145585396905 -1.6183886205337403, -52.625718899164845 -4.627958001317477, -61.17291419244771 -13.905662836518456 M-33.598694066382876 0.4005335537309662 C-37.024982543931394 -3.087511881413284, -45.1630410491334 -7.851903216750234, -55.83927732370063 -19.10097958516479 M-32.921816317230395 -0.03363710683184706 C-40.993509628884716 -6.6046769171236015, -48.31256868666955 -12.24579747828051, -57.239861025840185 -20.676865563692157 M-19.650792811073714 -0.8695464055553757 C-31.778369834710638 -8.401847173389353, -42.12658432033866 -19.179592510665596, -54.65350669193083 -27.947421464054713 M-20.81179755088722 0.2706580566673793 C-28.53735009828798 -6.249158762977364, -37.96978248018297 -14.010650489408448, -54.139183385660886 -29.047104507601688 M-7.652062622048728 1.4238330315205872 C-23.91826097585966 -10.866256720885291, -36.75626957049487 -26.22455486985275, -49.23513455794118 -34.81683759337309 M-9.113988295347266 0.8096572378057658 C-18.597615871176945 -8.985883623260138, -28.123690010938184 -17.93364668751126, -49.167837951452654 -34.34234578574094 M4.6951649577233265 2.0347612204276047 C-7.146197409104421 -7.5987563782356595, -17.865409926631962 -18.68409974584262, -45.30958350014598 -43.722334800632154 M4.47150768962384 -0.12522720990106273 C-11.432573304614788 -12.104458192814894, -23.730413160378916 -23.248188421535854, -45.85663670592667 -42.52763104007528 M14.976471090496474 0.6214334206249328 C2.7953027429729804 -10.45115089880331, -11.128081821150342 -20.62442577585379, -40.992444231291216 -50.273295951372674 M17.279569661983246 1.4925776585530253 C-1.614413429423708 -14.3491929676146, -19.709903633214964 -30.419317290339738, -41.09823945362578 -49.11447326309859 M22.076044261297014 -2.782998523333241 C6.024874906955436 -19.95712597213952, -11.17852255048015 -34.61286529627136, -37.495813919345636 -55.61211606512589 M23.722004514960375 -4.635593939230908 C4.197979268276711 -19.899890696811784, -13.993192849707807 -34.10167885972665, -38.82224214181562 -57.62884291379524 M12.753309018591846 -25.114749094826287 C-5.9226550231500905 -40.240805384788345, -18.760396050128698 -51.408696823578126, -35.306377027055206 -62.41458425743254 M10.895425517725254 -25.00921942608536 C0.16716592735753188 -35.81735628154316, -11.250011590784943 -44.74554940314309, -34.14200770003903 -63.14279985965909 M0.18148582498152166 -42.10106571362277 C-5.797087429189665 -49.873659939527286, -14.931773260639378 -58.73546367574682, -28.891743632834228 -72.82661985580489 M1.1510621660815588 -43.68150447373202 C-10.751173601927663 -54.60182107963511, -23.500409847085766 -65.96303661103268, -29.029754361007186 -70.74247949265555 M-11.060160397948255 -64.18474270723496 C-15.351932111730322 -65.81085382826875, -18.320986236446743 -72.37679560528123, -27.859691949428683 -77.84041822578368 M-9.881741272681882 -64.71514697413627 C-14.382813612175514 -67.530468544572, -17.964935044507083 -71.7258555978599, -25.44454817926294 -78.43548855527845" stroke="#000000" stroke-width="1" fill="none"></path><path d="M-23.113197048836465 -80.32275656051934 C-12.52220435716018 -58.53375096390429, 0.8884504318087103 -33.12848228449069, 18.655209315000004 0.4567646811100091 M-24.795361050115044 -80.0612622788176 C-11.298111164411035 -54.10784156513799, 0.4588218434656035 -31.037416861313403, 19.599126571779973 0.28666670698098795 M19.632679236112065 -0.09267331861533268 C-2.6899421869115763 0.7158496801608628, -20.908435726024084 0.33336244270740534, -68.00879596953095 -0.5223005583194505 M20.199369424944646 0.6094318189042057 C-6.023634399655169 1.3734246159815373, -30.939525530468362 0.9747191036963088, -69.61065934167058 -0.0691371105296027 M-71.1754453111142 2.14733187652552 C-53.60073729535796 -24.522225958432276, -38.80853184064891 -53.22834243638926, -26.267081519299264 -81.48003027029335 M-68.73901603684575 1.0248300887959587 C-53.07636321744427 -28.663512448274204, -35.20683070725179 -59.22891262198051, -25.061876513705666 -79.02920526172966 M-24.89048936189067 -80 C-24.89048936189067 -80, -24.89048936189067 -80, -24.89048936189067 -80 M-24.89048936189067 -80 C-24.89048936189067 -80, -24.89048936189067 -80, -24.89048936189067 -80" stroke="#000000" stroke-width="2" fill="none"></path></g></g><g transform="translate(850.4237916616044 276.24897386075133) rotate(0 50.1884294335448 8.5427113929438)"><text x="0" y="12.085422785887602" font-family="Virgil, Segoe UI Emoji" font-size="13.543300282484541px" fill="#000000" text-anchor="start" style="white-space: pre;" direction="ltr">Hashicorp Vault</text></g><g stroke-linecap="round"><g transform="translate(728.2491676237291 156.85168773794862) rotate(0 60.75021237949443 18.35494566422986)"><path d="M-0.39999513141810894 -0.16498868353664875 C19.58061430535457 6.002895967386372, 99.40022322792518 30.62424616079632, 119.69705542775938 36.78112655451719 M1.5908686952479183 -1.297211687732488 C21.955019435297615 5.042923448014715, 102.00043474255088 31.49426865788032, 121.90041989040697 38.00710301619222" stroke="#000000" stroke-width="2" fill="none"></path></g><g transform="translate(728.2491676237291 156.85168773794862) rotate(0 60.75021237949443 18.35494566422986)"><path d="M91.64025232110333 37.335184393451556 C99.45756719811129 39.97356730123237, 107.97879570454619 38.89252257841605, 121.06215083737993 37.921644348243376 M92.4081487172113 38.46212092135195 C98.51222757180234 38.08072685626339, 107.06094137827195 38.05850512812571, 122.64647902407819 37.02754445985158" stroke="#000000" stroke-width="2" fill="none"></path></g><g transform="translate(728.2491676237291 156.85168773794862) rotate(0 60.75021237949443 18.35494566422986)"><path d="M98.0495276162654 17.840539165167336 C104.00698039605905 26.0028079792914, 110.70509118190802 30.467013153768193, 121.06215083737993 37.921644348243376 M98.81742401237337 18.967475693067733 C103.39199778999597 23.325481673326976, 110.39458947745952 28.005991658457635, 122.64647902407819 37.02754445985158" stroke="#000000" stroke-width="2" fill="none"></path></g></g></svg>