<?xml version="1.0" encoding="UTF-8" standalone="no"?>
<!DOCTYPE svg PUBLIC "-//W3C//DTD SVG 1.1//EN" "http://www.w3.org/Graphics/SVG/1.1/DTD/svg11.dtd">
<svg version="1.1" xmlns="http://www.w3.org/2000/svg" xmlns:xlink="http://www.w3.org/1999/xlink" preserveAspectRatio="xMidYMid meet" viewBox="229.68130245345324 152.22123737571033 187.3302484837997 194.5126273791649" width="183.33" height="190.51"><defs><path d="M317.04 154.57C310.66 157.83 259.59 183.92 253.21 187.18C249.87 188.88 247.45 192.12 246.62 195.97C245.06 203.29 232.55 261.85 230.99 269.17C230.25 272.61 230.85 276.21 232.71 279.15C232.93 279.51 233.16 279.85 233.4 280.18C259.86 315.43 274.56 335.01 277.5 338.92C279.83 341.99 283.33 343.75 287.02 343.73C294.1 343.73 350.69 343.73 357.76 343.73C361.46 343.74 364.97 341.89 367.3 338.87C371.7 332.99 406.97 285.99 411.38 280.12C413.69 277.05 414.56 273 413.67 269.16C412.1 261.83 399.51 203.22 397.94 195.9C397.11 192.04 394.68 188.81 391.35 187.11C384.98 183.86 333.99 157.83 327.62 154.58C325.78 153.61 323.75 153.14 321.7 153.23C320.12 153.34 318.52 153.79 317.04 154.57Z" id="e9vpSen9r"></path><path d="M322.35 197.64C299.07 197.64 282.1 203.73 281.39 203.99C280.15 204.44 279.32 205.64 279.32 206.99C279.32 214.92 279.32 278.42 279.32 286.36C279.32 287.51 279.93 288.58 280.91 289.14C281.21 289.31 288.39 293.41 297.02 297.58C308.89 303.32 317.41 306.23 322.35 306.23C327.28 306.23 335.8 303.32 347.67 297.58C356.3 293.41 363.48 289.31 363.78 289.14C364.76 288.58 365.37 287.51 365.37 286.36C365.37 278.42 365.37 214.92 365.37 206.99C365.37 205.64 364.54 204.44 363.3 203.99C362.59 203.73 345.62 197.64 322.35 197.64ZM322.35 204.01C339.96 204.01 354.05 207.75 359.16 209.31C359.16 216.83 359.16 276.97 359.16 284.48C350.19 289.5 330.03 299.87 322.35 299.87C314.67 299.87 294.51 289.5 285.53 284.48C285.53 279.47 285.53 254.41 285.53 209.31C298.3 205.77 310.57 204.01 322.35 204.01Z" id="b2D83Ha4SB"></path><path d="M347.5 245C347.5 243.25 346.11 241.82 344.39 241.82C344.2 241.82 343.24 241.82 341.51 241.82C341.51 236.26 341.51 233.17 341.51 232.55C341.51 221.73 332.91 212.92 322.35 212.92C311.78 212.92 303.18 221.73 303.18 232.55C303.18 233.17 303.18 236.26 303.18 241.82C301.45 241.82 300.49 241.82 300.3 241.82C298.58 241.82 297.19 243.25 297.19 245C297.19 248.24 297.19 274.1 297.19 277.33C297.19 279.09 298.58 280.51 300.3 280.51C304.71 280.51 339.98 280.51 344.39 280.51C346.11 280.51 347.5 279.09 347.5 277.33C347.5 270.87 347.5 248.24 347.5 245ZM319.75 241.82C319.75 236.26 319.75 233.17 319.75 232.55C319.75 231.08 320.91 229.89 322.35 229.89C323.78 229.89 324.95 231.08 324.95 232.55C324.95 233.17 324.95 236.26 324.95 241.82L319.75 241.82ZM341.29 248.18L341.29 274.15L303.4 274.15L303.4 248.18L341.29 248.18ZM322.35 219.29C329.49 219.29 335.3 225.24 335.3 232.55C335.3 233.17 335.3 236.26 335.3 241.82L331.16 241.82C331.16 236.26 331.16 233.17 331.16 232.55C331.16 227.58 327.21 223.53 322.35 223.53C317.49 223.53 313.53 227.58 313.53 232.55C313.53 233.17 313.53 236.26 313.53 241.82L309.39 241.82L309.39 232.55C313.27 223.71 317.59 219.29 322.35 219.29Z" id="a3PZChmQGo"></path><path d="M319.24 257.25C319.24 258.05 319.24 264.44 319.24 265.24C319.24 267 320.63 268.43 322.35 268.43C324.06 268.43 325.45 267 325.45 265.24C325.45 264.44 325.45 258.05 325.45 257.25C325.45 255.49 324.06 254.06 322.35 254.06C320.63 254.06 319.24 255.49 319.24 257.25Z" id="d3dHHYtjzn"></path></defs><g><g><use xlink:href="#e9vpSen9r" opacity="1" fill="#326ce5" fill-opacity="1"></use><g><use xlink:href="#e9vpSen9r" opacity="1" fill-opacity="0" stroke="#000000" stroke-width="1" stroke-opacity="0"></use></g></g><g><use xlink:href="#b2D83Ha4SB" opacity="1" fill="#ffffff" fill-opacity="1"></use><g><use xlink:href="#b2D83Ha4SB" opacity="1" fill-opacity="0" stroke="#000000" stroke-width="1" stroke-opacity="0"></use></g></g><g><use xlink:href="#a3PZChmQGo" opacity="1" fill="#ffffff" fill-opacity="1"></use><g><use xlink:href="#a3PZChmQGo" opacity="1" fill-opacity="0" stroke="#000000" stroke-width="1" stroke-opacity="0"></use></g></g><g><use xlink:href="#d3dHHYtjzn" opacity="1" fill="#ffffff" fill-opacity="1"></use><g><use xlink:href="#d3dHHYtjzn" opacity="1" fill-opacity="0" stroke="#000000" stroke-width="1" stroke-opacity="0"></use></g></g></g></svg>